<mxfile host="app.diagrams.net" modified="2022-05-12T13:43:02.845Z" agent="5.0 (Windows NT 10.0; Win64; x64) AppleWebKit/537.36 (KHTML, like Gecko) Chrome/101.0.4951.54 Safari/537.36" etag="qbQlUeDvHPdYnjZPSXL6" version="18.0.3" type="github">
  <diagram id="bdsKv7_u6PEc6-tMgxja" name="Page-1">
    <mxGraphModel dx="1038" dy="581" grid="1" gridSize="10" guides="1" tooltips="1" connect="1" arrows="1" fold="1" page="1" pageScale="1" pageWidth="827" pageHeight="1169" math="0" shadow="0">
      <root>
        <mxCell id="0" />
        <mxCell id="1" parent="0" />
        <mxCell id="uOWCff0AJRq1E2b_BwQD-1" value="" style="rounded=0;whiteSpace=wrap;html=1;" vertex="1" parent="1">
          <mxGeometry x="2" y="30" width="760" height="590" as="geometry" />
        </mxCell>
        <mxCell id="uOWCff0AJRq1E2b_BwQD-2" value="&lt;span style=&quot;font-size: 10px;&quot;&gt;Image Logo&lt;/span&gt;" style="rounded=0;whiteSpace=wrap;html=1;" vertex="1" parent="1">
          <mxGeometry x="52" y="40" width="80" height="40" as="geometry" />
        </mxCell>
        <mxCell id="uOWCff0AJRq1E2b_BwQD-3" value="Hbutton" style="rounded=0;whiteSpace=wrap;html=1;" vertex="1" parent="1">
          <mxGeometry x="402" y="50" width="50" height="20" as="geometry" />
        </mxCell>
        <mxCell id="uOWCff0AJRq1E2b_BwQD-4" value="Pbutton" style="rounded=0;whiteSpace=wrap;html=1;" vertex="1" parent="1">
          <mxGeometry x="462" y="50" width="50" height="20" as="geometry" />
        </mxCell>
        <mxCell id="uOWCff0AJRq1E2b_BwQD-5" value="Abutton" style="rounded=0;whiteSpace=wrap;html=1;" vertex="1" parent="1">
          <mxGeometry x="522" y="50" width="50" height="20" as="geometry" />
        </mxCell>
        <mxCell id="uOWCff0AJRq1E2b_BwQD-6" value="ACbutton" style="rounded=0;whiteSpace=wrap;html=1;" vertex="1" parent="1">
          <mxGeometry x="582" y="50" width="60" height="20" as="geometry" />
        </mxCell>
        <mxCell id="uOWCff0AJRq1E2b_BwQD-7" value="Cartbtn" style="rounded=0;whiteSpace=wrap;html=1;" vertex="1" parent="1">
          <mxGeometry x="652" y="50" width="60" height="20" as="geometry" />
        </mxCell>
        <mxCell id="uOWCff0AJRq1E2b_BwQD-8" value="" style="rounded=0;whiteSpace=wrap;html=1;" vertex="1" parent="1">
          <mxGeometry x="2" y="530" width="760" height="90" as="geometry" />
        </mxCell>
        <mxCell id="uOWCff0AJRq1E2b_BwQD-9" value="Tải Ứng Dụng Của Chúng Tôi" style="text;html=1;strokeColor=none;fillColor=none;align=center;verticalAlign=middle;whiteSpace=wrap;rounded=0;fontSize=10;" vertex="1" parent="1">
          <mxGeometry x="2" y="540" width="140" height="10" as="geometry" />
        </mxCell>
        <mxCell id="uOWCff0AJRq1E2b_BwQD-10" value="Tải Ứng Dụng bằng Android và IOS dành cho điện thoại" style="text;html=1;strokeColor=none;fillColor=none;align=center;verticalAlign=middle;whiteSpace=wrap;rounded=0;fontSize=10;" vertex="1" parent="1">
          <mxGeometry y="554" width="260" height="10" as="geometry" />
        </mxCell>
        <mxCell id="uOWCff0AJRq1E2b_BwQD-11" value="TextSuggestion" style="rounded=0;whiteSpace=wrap;html=1;fontSize=10;" vertex="1" parent="1">
          <mxGeometry x="42" y="575" width="80" height="25" as="geometry" />
        </mxCell>
        <mxCell id="uOWCff0AJRq1E2b_BwQD-12" value="TextSuggestion2" style="rounded=0;whiteSpace=wrap;html=1;fontSize=10;" vertex="1" parent="1">
          <mxGeometry x="132" y="575" width="80" height="25" as="geometry" />
        </mxCell>
        <mxCell id="uOWCff0AJRq1E2b_BwQD-13" value="Image Logo" style="rounded=0;whiteSpace=wrap;html=1;fontSize=10;" vertex="1" parent="1">
          <mxGeometry x="312" y="554" width="90" height="40" as="geometry" />
        </mxCell>
        <mxCell id="uOWCff0AJRq1E2b_BwQD-14" value="Đường Dẫn" style="text;html=1;strokeColor=none;fillColor=none;align=center;verticalAlign=middle;whiteSpace=wrap;rounded=0;fontSize=10;" vertex="1" parent="1">
          <mxGeometry x="477" y="534" width="60" height="30" as="geometry" />
        </mxCell>
        <mxCell id="uOWCff0AJRq1E2b_BwQD-15" value="TextLink1" style="rounded=0;whiteSpace=wrap;html=1;fontSize=10;" vertex="1" parent="1">
          <mxGeometry x="472" y="564" width="70" height="21" as="geometry" />
        </mxCell>
        <mxCell id="uOWCff0AJRq1E2b_BwQD-16" value="TextLink2" style="rounded=0;whiteSpace=wrap;html=1;fontSize=10;" vertex="1" parent="1">
          <mxGeometry x="472" y="590" width="70" height="21" as="geometry" />
        </mxCell>
        <mxCell id="uOWCff0AJRq1E2b_BwQD-17" value="Follow Chúng tôi" style="text;html=1;strokeColor=none;fillColor=none;align=center;verticalAlign=middle;whiteSpace=wrap;rounded=0;fontSize=10;" vertex="1" parent="1">
          <mxGeometry x="622" y="534" width="80" height="30" as="geometry" />
        </mxCell>
        <mxCell id="uOWCff0AJRq1E2b_BwQD-18" value="TextLinkApp1" style="rounded=0;whiteSpace=wrap;html=1;fontSize=10;" vertex="1" parent="1">
          <mxGeometry x="627" y="564" width="70" height="21" as="geometry" />
        </mxCell>
        <mxCell id="uOWCff0AJRq1E2b_BwQD-19" value="TextLinkApp2" style="rounded=0;whiteSpace=wrap;html=1;fontSize=10;" vertex="1" parent="1">
          <mxGeometry x="627" y="590" width="70" height="21" as="geometry" />
        </mxCell>
        <mxCell id="uOWCff0AJRq1E2b_BwQD-20" value="Baner Image" style="text;html=1;strokeColor=none;fillColor=none;align=center;verticalAlign=middle;whiteSpace=wrap;rounded=0;" vertex="1" parent="1">
          <mxGeometry x="242" y="260" width="100" height="30" as="geometry" />
        </mxCell>
        <mxCell id="uOWCff0AJRq1E2b_BwQD-21" value="" style="rounded=0;whiteSpace=wrap;html=1;" vertex="1" parent="1">
          <mxGeometry x="432" y="160" width="270" height="270" as="geometry" />
        </mxCell>
        <mxCell id="uOWCff0AJRq1E2b_BwQD-22" value="btnLoginSwich" style="rounded=0;whiteSpace=wrap;html=1;" vertex="1" parent="1">
          <mxGeometry x="452" y="170" width="100" height="20" as="geometry" />
        </mxCell>
        <mxCell id="uOWCff0AJRq1E2b_BwQD-23" value="btnSignUpSwich" style="rounded=0;whiteSpace=wrap;html=1;" vertex="1" parent="1">
          <mxGeometry x="582" y="170" width="100" height="20" as="geometry" />
        </mxCell>
        <mxCell id="uOWCff0AJRq1E2b_BwQD-24" value="txtAccount" style="rounded=0;whiteSpace=wrap;html=1;" vertex="1" parent="1">
          <mxGeometry x="474.5" y="250" width="185" height="20" as="geometry" />
        </mxCell>
        <mxCell id="uOWCff0AJRq1E2b_BwQD-25" value="txtPassword" style="rounded=0;whiteSpace=wrap;html=1;" vertex="1" parent="1">
          <mxGeometry x="474.5" y="310" width="185" height="20" as="geometry" />
        </mxCell>
        <mxCell id="uOWCff0AJRq1E2b_BwQD-26" value="btnSignUp" style="rounded=0;whiteSpace=wrap;html=1;" vertex="1" parent="1">
          <mxGeometry x="474.5" y="340" width="185" height="20" as="geometry" />
        </mxCell>
        <mxCell id="uOWCff0AJRq1E2b_BwQD-28" value="" style="line;strokeWidth=2;html=1;" vertex="1" parent="1">
          <mxGeometry x="582" y="190" width="100" height="10" as="geometry" />
        </mxCell>
        <mxCell id="uOWCff0AJRq1E2b_BwQD-29" value="txtGmail" style="rounded=0;whiteSpace=wrap;html=1;" vertex="1" parent="1">
          <mxGeometry x="474.5" y="280" width="185" height="20" as="geometry" />
        </mxCell>
      </root>
    </mxGraphModel>
  </diagram>
</mxfile>
